<?xml version="1.0" standalone="no"?>
<!DOCTYPE svg PUBLIC "-//W3C//DTD SVG 20010904//EN"
 "http://www.w3.org/TR/2001/REC-SVG-20010904/DTD/svg10.dtd">
<svg version="1.0" xmlns="http://www.w3.org/2000/svg"
 width="700.000000pt" height="700.000000pt" viewBox="0 0 700.000000 700.000000"
 preserveAspectRatio="xMidYMid meet">
<metadata>
Created by potrace 1.14, written by Peter Selinger 2001-2017
</metadata>
<g transform="translate(0.000000,700.000000) scale(0.100000,-0.100000)"
fill="#000000" stroke="none">
<path d="M4890 6331 c-75 -23 -177 -105 -218 -174 -13 -21 -22 -27 -37 -22
-107 32 -292 23 -440 -20 -33 -10 -67 -21 -75 -25 -8 -4 -43 -20 -76 -35 l-61
-27 -79 30 c-161 61 -534 154 -534 133 0 -3 10 -18 23 -32 98 -116 237 -316
288 -415 35 -70 43 -95 50 -175 12 -119 43 -257 70 -311 65 -127 80 -283 45
-454 l-16 -78 -115 -109 c-279 -264 -495 -608 -617 -982 -34 -103 -29 -87 -62
-228 -22 -98 -32 -154 -52 -297 -10 -74 -13 -480 -4 -555 4 -38 11 -95 14
-125 3 -30 8 -64 10 -75 2 -11 7 -40 11 -65 4 -25 18 -96 32 -158 14 -63 23
-116 20 -119 -3 -2 -48 5 -100 16 -193 42 -340 56 -592 55 -257 0 -387 -15
-576 -68 -376 -104 -651 -313 -728 -553 -29 -93 -32 -105 -36 -208 -12 -276
141 -498 450 -652 111 -56 360 -143 480 -168 11 -3 33 -8 49 -11 53 -12 139
-12 162 -2 21 10 41 48 39 73 -4 45 -20 85 -43 112 -39 43 -140 96 -247 128
-233 70 -440 238 -509 414 -81 207 105 386 409 395 72 2 121 -1 250 -18 27 -3
204 -31 265 -42 14 -2 45 -6 70 -10 25 -3 52 -7 60 -9 8 -2 42 -7 75 -10 33
-4 76 -8 95 -11 19 -2 62 -6 95 -9 33 -3 78 -8 100 -10 22 -2 83 -7 135 -10
52 -4 106 -9 120 -12 40 -8 1048 -20 1150 -13 33 2 91 -5 145 -17 109 -26 265
-23 308 4 6 4 107 8 222 9 219 1 250 4 297 32 56 33 68 141 26 224 -21 44 -48
63 -99 72 -68 12 -118 78 -82 108 50 41 173 275 222 423 90 271 101 594 30
903 -6 26 -13 56 -15 68 -2 12 -10 40 -19 63 -8 23 -12 47 -10 54 2 6 6 39 9
72 3 33 8 71 10 85 3 14 7 44 10 67 3 22 7 52 10 65 3 12 8 39 11 58 2 19 7
46 10 59 2 14 14 70 25 125 33 162 101 383 153 495 28 60 30 73 29 180 -1 190
-14 226 -215 612 -37 69 -82 165 -101 215 -38 100 -81 284 -91 389 -11 125
-29 252 -49 340 -23 107 -83 220 -124 236 -26 10 -28 10 -62 0z"/>
</g>
</svg>
